<?xml version="1.0" standalone="no"?><!DOCTYPE svg PUBLIC "-//W3C//DTD SVG 1.1//EN" "http://www.w3.org/Graphics/SVG/1.1/DTD/svg11.dtd"><svg t="1675323588903" class="icon" viewBox="0 0 1024 1024" version="1.1" xmlns="http://www.w3.org/2000/svg" p-id="6132" xmlns:xlink="http://www.w3.org/1999/xlink" width="64" height="64"><path d="M935.292144 346.742189c-12.973476 0-23.555485-10.558473-23.555485-23.555485L911.736659 228.957599c0-12.995989-10.584056-23.555485-23.557532-23.555485l-94.229105 0c-12.975523 0-23.557532-10.558473-23.557532-23.557532 0-12.998035 10.582009-23.557532 23.557532-23.557532l94.229105 0c38.969547 0 70.669526 31.701003 70.669526 70.669526l0 94.229105C958.849676 336.183715 948.267667 346.742189 935.292144 346.742189z" p-id="6133" fill="#1296db"></path><path d="M87.245552 346.742189c-12.995989 0-23.555485-10.558473-23.555485-23.555485L63.690066 228.957599c0-38.968523 31.699979-70.669526 70.670549-70.669526l94.227058 0c12.998035 0 23.557532 10.558473 23.557532 23.557532 0 12.999059-10.558473 23.557532-23.557532 23.557532l-94.227058 0c-12.998035 0-23.557532 10.558473-23.557532 23.555485l0 94.229105C110.804107 336.183715 100.24461 346.742189 87.245552 346.742189z" p-id="6134" fill="#1296db"></path><path d="M228.587674 864.993566l-94.227058 0c-38.97057 0-70.670549-31.698956-70.670549-70.669526l0-94.228081c0-12.975523 10.558473-23.557532 23.555485-23.557532 12.999059 0 23.557532 10.582009 23.557532 23.557532l0 94.228081c0 12.974499 10.558473 23.557532 23.557532 23.557532l94.227058 0c12.998035 0 23.557532 10.582009 23.557532 23.554462C252.145206 854.41258 241.585709 864.993566 228.587674 864.993566z" p-id="6135" fill="#1296db"></path><path d="M888.18015 864.993566l-94.229105 0c-12.975523 0-23.557532-10.580986-23.557532-23.557532 0-12.972453 10.582009-23.554462 23.557532-23.554462l94.229105 0c12.973476 0 23.557532-10.583033 23.557532-23.557532l0-94.228081c0-12.975523 10.582009-23.557532 23.555485-23.557532 12.975523 0 23.557532 10.582009 23.557532 23.557532l0 94.228081C958.849676 833.295634 927.149697 864.993566 888.18015 864.993566z" p-id="6136" fill="#1296db"></path></svg>